<svg xmlns="http://www.w3.org/2000/svg" width="80" height="80" viewBox="0 0 80 80" role="img" aria-label="Nano Banana mark">
  <g fill="none" stroke="#111827" stroke-width="4" stroke-linecap="round" stroke-linejoin="round">
    <path d="M42 21c-1-5-4-8-8-10l-4 7c4 1 7 3 9 6"/>
    <path d="M39 25c-8 1-15 5-20 12-3 4-4 9-3 14 7 2 14 1 20-3 5-4 8-9 9-15"/>
    <path d="M43 27c5-4 11-5 17-3 4 1 7 4 9 7-5 1-10 4-14 8-4 4-7 9-8 15-4-3-6-7-6-12"/>
    <path d="M42 32c0 10-3 19-9 27-4 5-9 8-15 9-3-4-4-9-2-14 2-5 6-9 11-12"/>
    <path d="M47 39c7 3 12 8 15 15 2 5 2 10 0 15-6-1-11-4-15-9-3-4-5-9-5-14"/>
  </g>
  <path d="M29 13 34 9l5 5-4 7-6-8Z" fill="#111827"/>
</svg>
