<svg xmlns="http://www.w3.org/2000/svg" width="80" height="80" viewBox="0 0 80 80" role="img" aria-label="Sora mark">
  <path d="M40 14c11 0 20 6 24 15 8 2 13 9 13 17 0 10-8 18-18 18H23C12 64 4 56 4 45c0-9 7-17 16-18 5-8 12-13 20-13Z" fill="#111827"/>
  <ellipse cx="31" cy="43" rx="6" ry="9" fill="#fff" transform="rotate(-24 31 43)"/>
  <ellipse cx="51" cy="43" rx="6" ry="9" fill="#fff" transform="rotate(24 51 43)"/>
  <path d="m29 39 1.5 2.7 2.8 1.3-2.8 1.3L29 47l-1.5-2.7-2.8-1.3 2.8-1.3L29 39Zm20 0 1.5 2.7 2.8 1.3-2.8 1.3L49 47l-1.5-2.7-2.8-1.3 2.8-1.3L49 39Z" fill="#111827"/>
</svg>
